# xmcd CD database file
#
# Track frame offsets:
#	150
#	15092
#	29962
#	49162
#	66634
#	86964
#	106273
#	128772
#	145070
#	155604
#	173407
#	187281
#	199137
#	216587
#	226592
#
# Disc length: 3239 seconds
#
# Revision: 5
# Processed by: cddbd v1.5.2PL0 Copyright (c) Steve Scherf et al.
# Submitted via: CDex 2.21
#
DISCID=da0ca50f
DTITLE=Collin Raye - His Love Remains
DYEAR=2011
DGENRE=Country
TTITLE0=Come Thou Fount of Every Blessing (feat. Andrea Thomas)
TTITLE1=Give Me Jesus
TTITLE2=How Great Thou Art
TTITLE3=Ave Maria
TTITLE4=How Beautiful (feat. Andrea Thomas)
TTITLE5=Undefeated
TTITLE6=Here I Am, Lord
TTITLE7=I Get What I Need
TTITLE8=O Lord, I Am Not Worthy (feat. Marie Bellet)
TTITLE9=Were You There
TTITLE10=I Am The Bread of Life
TTITLE11=Let All Mortal Flesh Keep Silence
TTITLE12=Love Remains
TTITLE13=Joyful, Joyful We Adore Thee
TTITLE14=Amazing Grace
EXTD=YEAR: 2011
EXTT0=
EXTT1=
EXTT2=
EXTT3=
EXTT4=
EXTT5=
EXTT6=
EXTT7=
EXTT8=
EXTT9=
EXTT10=
EXTT11=
EXTT12=
EXTT13=
EXTT14=
PLAYORDER=
